<svg version="1.1" xmlns="http://www.w3.org/2000/svg" xmlns:xlink="http://www.w3.org/1999/xlink">

    <defs>
        <linearGradient id="SVGID_1_" gradientTransform="matrix(0 -1.982 -1.844 0 -132.522 -51.077)" gradientUnits="userSpaceOnUse" x1="-37.106" x2="-26.555" y1="-72.705" y2="-84.047">
            <stop offset="0" stop-color="#fd5"/>
            <stop offset=".5" stop-color="#ff543e"/>
            <stop offset="1" stop-color="#c837ab"/>
        </linearGradient>
    </defs>

    <symbol id="instagram" xmlns="http://www.w3.org/2000/svg" viewBox="0 0 24 24">
        
        <path d="m1.5 1.633c-1.886 1.959-1.5 4.04-1.5 10.362 0 5.25-.916 10.513 3.878 11.752 1.497.385 14.761.385 16.256-.002 1.996-.515 3.62-2.134 3.842-4.957.031-.394.031-13.185-.001-13.587-.236-3.007-2.087-4.74-4.526-5.091-.559-.081-.671-.105-3.539-.11-10.173.005-12.403-.448-14.41 1.633z" fill="url(#SVGID_1_)"/>
        
        <path d="m11.998 3.139c-3.631 0-7.079-.323-8.396 3.057-.544 1.396-.465 3.209-.465 5.805 0 2.278-.073 4.419.465 5.804 1.314 3.382 4.79 3.058 8.394 3.058 3.477 0 7.062.362 8.395-3.058.545-1.41.465-3.196.465-5.804 0-3.462.191-5.697-1.488-7.375-1.7-1.7-3.999-1.487-7.374-1.487zm-.794 1.597c7.574-.012 8.538-.854 8.006 10.843-.189 4.137-3.339 3.683-7.211 3.683-7.06 0-7.263-.202-7.263-7.265 0-7.145.56-7.257 6.468-7.263zm5.524 1.471c-.587 0-1.063.476-1.063 1.063s.476 1.063 1.063 1.063 1.063-.476 1.063-1.063-.476-1.063-1.063-1.063zm-4.73 1.243c-2.513 0-4.55 2.038-4.55 4.551s2.037 4.55 4.55 4.55 4.549-2.037 4.549-4.55-2.036-4.551-4.549-4.551zm0 1.597c3.905 0 3.91 5.908 0 5.908-3.904 0-3.91-5.908 0-5.908z" fill="#fff"/>
    </symbol>

    <symbol id="telegram" xmlns="http://www.w3.org/2000/svg" viewBox="0 0 24 24">
        <g>
            <path d="m9.417 15.181-.397 5.584c.568 0 .814-.244 1.109-.537l2.663-2.545 5.518 4.041c1.012.564 1.725.267 1.998-.931l3.622-16.972.001-.001c.321-1.496-.541-2.081-1.527-1.714l-21.29 8.151c-1.453.564-1.431 1.374-.247 1.741l5.443 1.693 12.643-7.911c.595-.394 1.136-.176.691.218z" fill="#039be5"/>
        </g>
    </symbol>

    <symbol id="vk" xmlns="http://www.w3.org/2000/svg" viewBox="0 0 24 24">
        <g>
            <path d="m19.915 13.028c-.388-.49-.277-.708 0-1.146.005-.005 3.208-4.431 3.538-5.932l.002-.001c.164-.547 0-.949-.793-.949h-2.624c-.668 0-.976.345-1.141.731 0 0-1.336 3.198-3.226 5.271-.61.599-.892.791-1.225.791-.164 0-.419-.192-.419-.739v-5.105c0-.656-.187-.949-.74-.949h-4.126c-.419 0-.668.306-.668.591 0 .622.945.765 1.043 2.515v3.797c0 .832-.151.985-.486.985-.892 0-3.057-3.211-4.34-6.886-.259-.713-.512-1.001-1.185-1.001h-2.625c-.749 0-.9.345-.9.731 0 .682.892 4.073 4.148 8.553 2.17 3.058 5.226 4.715 8.006 4.715 1.671 0 1.875-.368 1.875-1.001 0-2.922-.151-3.198.686-3.198.388 0 1.056.192 2.616 1.667 1.783 1.749 2.076 2.532 3.074 2.532h2.624c.748 0 1.127-.368.909-1.094-.499-1.527-3.871-4.668-4.023-4.878z" fill="#4b729f"/>
        </g>
    </symbol>

    <symbol id="github" xmlns="http://www.w3.org/2000/svg" viewBox="0 0 24 24">
        <g>
            <path d="m12 .5c-6.63 0-12 5.28-12 11.792 0 5.211 3.438 9.63 8.205 11.188.6.111.82-.254.82-.567 0-.28-.01-1.022-.015-2.005-3.338.711-4.042-1.582-4.042-1.582-.546-1.361-1.335-1.725-1.335-1.725-1.087-.731.084-.716.084-.716 1.205.082 1.838 1.215 1.838 1.215 1.07 1.803 2.809 1.282 3.495.981.108-.763.417-1.282.76-1.577-2.665-.295-5.466-1.309-5.466-5.827 0-1.287.465-2.339 1.235-3.164-.135-.298-.54-1.497.105-3.121 0 0 1.005-.316 3.3 1.209.96-.262 1.98-.392 3-.398 1.02.006 2.04.136 3 .398 2.28-1.525 3.285-1.209 3.285-1.209.645 1.624.24 2.823.12 3.121.765.825 1.23 1.877 1.23 3.164 0 4.53-2.805 5.527-5.475 5.817.42.354.81 1.077.81 2.182 0 1.578-.015 2.846-.015 3.229 0 .309.21.678.825.56 4.801-1.548 8.236-5.97 8.236-11.173 0-6.512-5.373-11.792-12-11.792z" fill="#e7c8b4"/>
        </g>
    </symbol>

    <symbol id="btn-close" xmlns="http://www.w3.org/2000/svg" viewBox="0 0 512 512">
        <g>
            <path d="M257,0C117.104,0,0,113.029,0,255c0,140.742,116.009,257,257,257c142.13,0,255-117.257,255-257
                C512,114.061,397.951,0,257,0z M257,482.2C131.832,482.2,29.8,380.168,29.8,255C29.8,130.935,131.832,29.8,257,29.8
                c124.065,0,225.2,101.135,225.2,225.2C482.2,380.168,381.065,482.2,257,482.2z"/>

            <path d="M373.764,310.124l-53.286-54.961l53.195-53.196c17.546-17.546,17.546-46.094,0-63.639
                c-17.546-17.547-46.096-17.545-63.64,0l-53.196,53.196l-54.961-53.287c-17.553-17.456-46.033-17.425-63.549,0.091
                c-17.546,17.545-17.546,46.094,0,63.639l53.195,53.196l-53.286,54.961c-17.455,17.553-17.425,46.034,0.091,63.549
                c17.516,17.516,45.996,17.546,63.549,0.091l54.961-53.287l53.196,53.196c17.544,17.545,46.094,17.546,63.64,0
                C391.189,356.158,391.219,327.677,373.764,310.124z M352.46,352.46c-5.863,5.863-15.351,5.863-21.214,0l-63.64-63.64
                c-5.794-5.794-15.165-5.867-21.048-0.163l-65.64,63.64c-0.056,0.054-0.11,0.108-0.165,0.163c-5.863,5.863-15.351,5.863-21.214,0
                c-5.863-5.864-5.862-15.35,0-21.213c0.055-0.055,0.109-0.11,0.163-0.165l63.64-65.64c5.703-5.883,5.631-15.254-0.163-21.048
                l-63.64-63.64c-5.863-5.864-5.863-15.35,0-21.213c5.863-5.863,15.351-5.863,21.214,0c0.055,0.055,0.109,0.109,0.165,0.163
                l65.64,63.64c5.885,5.704,15.256,5.631,21.048-0.163l63.64-63.64c5.863-5.863,15.351-5.863,21.214,0
                c5.863,5.864,5.862,15.349,0,21.213l-63.64,63.64c-5.794,5.794-5.866,15.165-0.163,21.048l63.64,65.64
                c0.054,0.055,0.108,0.11,0.163,0.165C358.323,337.111,358.323,346.597,352.46,352.46z"/>
        </g>
    </symbol>
    
</svg>