<?xml version="1.0" standalone="no"?>
<!DOCTYPE svg PUBLIC "-//W3C//DTD SVG 20010904//EN"
 "http://www.w3.org/TR/2001/REC-SVG-20010904/DTD/svg10.dtd">
<svg version="1.0" xmlns="http://www.w3.org/2000/svg"
 width="512.000000pt" height="512.000000pt" viewBox="0 0 512.000000 512.000000"
 preserveAspectRatio="xMidYMid meet">
<metadata>
Created by potrace 1.11, written by Peter Selinger 2001-2013
</metadata>
<g transform="translate(0.000000,512.000000) scale(0.100000,-0.100000)"
fill="#000000" stroke="none">
<path d="M1313 3628 c-10 -12 -373 -1853 -373 -1890 0 -14 9 -18 43 -18 38 0
44 -3 54 -29 15 -41 50 -45 402 -38 329 6 392 16 538 82 222 102 386 267 499
502 100 208 146 496 113 703 -6 36 -11 72 -11 80 -1 30 -46 186 -68 240 -58
138 -167 259 -285 314 -117 56 -142 59 -536 63 -294 4 -367 2 -376 -9z m728
-361 c136 -42 199 -139 219 -341 18 -179 -22 -384 -108 -550 -37 -73 -64 -109
-137 -181 -155 -155 -237 -185 -510 -185 -163 0 -176 1 -171 18 6 19 146 722
196 982 17 91 36 179 41 196 12 38 45 70 79 77 50 11 344 -1 391 -16z"/>
<path d="M3083 3628 c-9 -13 -373 -1856 -373 -1890 0 -14 9 -18 43 -18 38 0
44 -3 53 -28 8 -21 20 -31 44 -35 87 -18 173 3 189 46 8 20 55 246 66 312 13
82 40 185 55 210 10 17 70 81 133 143 109 107 147 131 160 100 3 -7 75 -174
161 -372 86 -197 156 -362 156 -367 0 -5 9 -9 19 -9 11 0 33 -13 49 -29 33
-34 91 -46 179 -39 57 5 89 27 79 55 -3 6 0 13 7 16 10 3 -56 154 -386 879
-29 64 -38 94 -33 114 4 15 80 101 184 208 97 100 254 260 348 356 94 97 173
185 176 197 4 15 -1 24 -18 34 l-24 12 46 49 c25 26 42 53 39 58 -4 6 -69 10
-160 10 l-153 0 -179 -182 c-99 -101 -286 -293 -416 -428 -218 -224 -264 -268
-271 -258 -2 1 28 156 65 343 63 319 67 342 53 371 -12 25 -13 43 -6 82 6 34
6 54 -1 61 -16 16 -272 14 -284 -1z"/>
</g>
</svg>
